<svg id="chrome-canary" xmlns="http://www.w3.org/2000/svg" viewBox="0 0 500 500"><circle fill="white" cx="250" cy="250" r="118"/><path fill="#EABF18" d="M500 250c0 135.2-107.3 245.3-241.4 249.8-2.9.1-5.7.2-8.6.2s-5.8 0-8.6-.2l8.6-14.9 100.8-174.7c.6-1 1.3-2.1 1.9-3.2 9.4-16.9 14.8-36.3 14.8-57 0-64.9-52.6-117.5-117.5-117.5h220.8c18.6 35.1 29.2 75 29.2 117.5z"/><circle fill="#EABA00" cx="250" cy="250" r="95"/><path fill="#CE9200" d="M470.8 132.5H250c-64.9 0-117.5 52.6-117.5 117.5 0 20.7 5.4 40.1 14.8 57L46.6 132.5l-8.7-15C82.1 47 160.6 0 250 0s167.9 47 212.1 117.6c3 4.9 5.9 9.8 8.7 14.9z"/><path fill="#DFA600" d="M350.8 310.2L250 484.9l-8.6 14.9C107.3 495.3 0 385.2 0 250c0-42.5 10.6-82.4 29.3-117.5 2.7-5.1 5.6-10.1 8.7-15l8.7 15L147.3 307l1.9 3.2c20.5 34.3 58 57.2 100.8 57.2s80.3-22.9 100.8-57.2z"/></svg>
