<svg xmlns="http://www.w3.org/2000/svg" xmlns:xlink="http://www.w3.org/1999/xlink" viewBox="0 0 500 500"><circle fill="#E6E7E8" cx="250" cy="250" r="250"/><circle fill="#9B40DC" cx="250" cy="250" r="227.7"/><symbol id="a"><path fill="#E6E7E8" d="M250 88c-2.8 0-5-2.2-5-5V43c0-2.8 2.2-5 5-5s5 2.2 5 5v40c0 2.8-2.2 5-5 5z"/></symbol><use xlink:href="#a"/><g id="b"><use transform="rotate(45 250 250)" xlink:href="#a"/><use transform="rotate(90 250 250)" xlink:href="#a"/><use transform="rotate(135 250 250)" xlink:href="#a"/><use transform="rotate(180 250 250)" xlink:href="#a"/><use transform="rotate(225 250 250)" xlink:href="#a"/><use transform="rotate(270 250 250)" xlink:href="#a"/><use transform="rotate(315 250 250)" xlink:href="#a"/><use transform="rotate(360 250 250)" xlink:href="#a"/></g><use transform="rotate(15 250 250)" xlink:href="#b"/><use transform="rotate(30 250 250)" xlink:href="#b"/><path fill="#E6E7E8" d="M250 250l-22.2-22.2-124.2 168.6 168.6-124.2"/><path fill="#ED1C24" d="M250 250l22.2 22.2 124.2-168.6-168.6 124.2"/></svg>